# xmcd CD database file
#
# Track frame offsets:
#	150
#	26400
#	51243
#	70280
#	96567
#	122432
#	145955
#	173719
#	194628
#	219920
#	243429
#
# Disc length: 3594 seconds
#
# Revision: 0
# Processed by: cddbd v1.5.2PL0 Copyright (c) Steve Scherf et al.
# Submitted via: jetAudio 7
#
DISCID=a10e080b
DTITLE=음악가 없음 - 앨범 없음
DYEAR=1900
DGENRE=장르 없음
TTITLE0=La Citadelle
TTITLE1=Symphony Of Palms
TTITLE2=Mistralazul 2
TTITLE3=Hayati
TTITLE4=Mountains Of The Moon
TTITLE5=Zaardub
TTITLE6=Shout At The Devil
TTITLE7=Cleopatra King Size
TTITLE8=Once Upon A Time In The East
TTITLE9=Maghreb Rockers
TTITLE10=La Citadelle
EXTD=
EXTT0=
EXTT1=
EXTT2=
EXTT3=
EXTT4=
EXTT5=
EXTT6=
EXTT7=
EXTT8=
EXTT9=
EXTT10=
PLAYORDER=
